# xmcd
#
# Track frame offsets:
#	150
#	12668
#	26472
#	49760
#	61684
#	76003
#	89017
#	102209
#	118799
#	132726
#
# Disc length: 1969 seconds
#
# Revision: 0
# Processed by: cddbd v1.5.2PL0 Copyright (c) Steve Scherf et al.
# Submitted via: EasyCDDAExtractor 2010.4.0.0
#
DISCID=7f07af0a
DTITLE=Cassie Taylor - Blue
DYEAR=2011
DGENRE=Blues
TTITLE0=Memphis
TTITLE1=Spoken For
TTITLE2=Black Coffee
TTITLE3=Goodbye
TTITLE4=Bought Borrowed Stolen
TTITLE5=Keys
TTITLE6=Make Me Cry
TTITLE7=Haunted
TTITLE8=Disappointment
TTITLE9=Waste Of Time
EXTD=
EXTT0=
EXTT1=
EXTT2=
EXTT3=
EXTT4=
EXTT5=
EXTT6=
EXTT7=
EXTT8=
EXTT9=
PLAYORDER=
